<svg width="48" height="48" viewBox="0 0 48 48" fill="none" xmlns="http://www.w3.org/2000/svg">
  <circle cx="24" cy="20" r="8" stroke="#FFB800" stroke-width="2"/>
  <path d="M12 38C12 31.3726 17.3726 26 24 26C30.6274 26 36 31.3726 36 38" stroke="#FFB800" stroke-width="2"/>
  <path d="M36 20C39.3137 20 42 17.3137 42 14C42 10.6863 39.3137 8 36 8" stroke="#FFB800" stroke-width="2" stroke-linecap="round"/>
  <path d="M12 20C8.68629 20 6 17.3137 6 14C6 10.6863 8.68629 8 12 8" stroke="#FFB800" stroke-width="2" stroke-linecap="round"/>
  <path d="M36 38V34C36 30.6863 38.6863 28 42 28" stroke="#FFB800" stroke-width="2" stroke-linecap="round"/>
  <path d="M12 38V34C12 30.6863 9.31371 28 6 28" stroke="#FFB800" stroke-width="2" stroke-linecap="round"/>
</svg> 