<svg width="32" height="32" viewBox="0 0 32 32" fill="none" xmlns="http://www.w3.org/2000/svg">
  <!-- Background Circle -->
  <circle cx="16" cy="16" r="16" fill="black"/>
  
  <!-- DWA Letters -->
  <path d="M8 12C8 10.8954 8.89543 10 10 10H12C13.1046 10 14 10.8954 14 12V20C14 21.1046 13.1046 22 12 22H10C8.89543 22 8 21.1046 8 20V12Z" fill="#FFB800"/>
  
  <path d="M15 11L19 10L23 11L21 16L19 21L17 16L15 11Z" fill="#FFB800"/>
  
  <path d="M24 10L26 11L27 16L26 21L24 22L25 16L24 10Z" fill="#FFB800"/>
  
  <!-- Crown Symbol -->
  <path d="M13 8L16 6L19 8L18 9L16 8L14 9L13 8Z" fill="#FFB800"/>
</svg> 